<?xml version="1.0" encoding="utf-8"?>
<!-- Generator: Adobe Illustrator 18.1.1, SVG Export Plug-In . SVG Version: 6.00 Build 0)  -->
<svg version="1.1" id="Layer_1" xmlns="http://www.w3.org/2000/svg" xmlns:xlink="http://www.w3.org/1999/xlink" x="0px" y="0px"
	 viewBox="0 0 72.6 100.6" enable-background="new 0 0 72.6 100.6" xml:space="preserve">
<g>
	<g>
		<polygon fill="#FFFFFF" points="38.9,28.4 50.3,28.4 44.6,99.3 		"/>
		<path fill="#0A2120" d="M44.6,99.9c-0.3,0-0.6-0.2-0.6-0.6l-5.7-70.8c0-0.2,0-0.3,0.2-0.5s0.3-0.2,0.4-0.2h11.4
			c0.2,0,0.3,0.1,0.4,0.2c0.1,0.1,0.2,0.3,0.2,0.5l-5.7,70.8C45.2,99.6,44.9,99.9,44.6,99.9z M39.6,29.1l5,62.6l5-62.6H39.6z"/>
	</g>
	<g>
		<polygon fill="#FFFFFF" points="33.2,28.4 19.5,99.3 39.8,39.6 38.9,28.4 		"/>
		<path fill="#0A2120" d="M19.5,99.9c-0.1,0-0.1,0-0.2,0c-0.3-0.1-0.5-0.4-0.4-0.7l13.6-70.8c0.1-0.3,0.3-0.5,0.6-0.5h5.8
			c0.3,0,0.6,0.2,0.6,0.6l0.9,11.1c0,0.1,0,0.2,0,0.2L20.1,99.5C20,99.7,19.8,99.9,19.5,99.9z M33.7,29.1L21.8,90.7l17.4-51.2
			l-0.8-10.4H33.7z"/>
	</g>
	<g>
		<polygon fill="#FFFFFF" points="56.1,28.4 69.7,99.3 49.4,39.6 50.3,28.4 		"/>
		<path fill="#0A2120" d="M69.7,99.9c-0.3,0-0.5-0.2-0.6-0.4L48.9,39.8c0-0.1,0-0.2,0-0.2l0.9-11.1c0-0.3,0.3-0.6,0.6-0.6h5.8
			c0.3,0,0.5,0.2,0.6,0.5l13.6,70.8c0.1,0.3-0.1,0.6-0.4,0.7C69.8,99.9,69.8,99.9,69.7,99.9z M50.1,39.5l17.4,51.2L55.6,29.1h-4.7
			L50.1,39.5z"/>
	</g>
	<g>
		<rect x="23.9" y="21.7" fill="#FFFFFF" width="40" height="6.8"/>
		<path fill="#0A2120" d="M63.9,29.1h-40c-0.3,0-0.6-0.3-0.6-0.6v-6.8c0-0.3,0.3-0.6,0.6-0.6h40c0.3,0,0.6,0.3,0.6,0.6v6.8
			C64.5,28.8,64.2,29.1,63.9,29.1z M24.5,27.8h38.7v-5.6H24.5V27.8z"/>
	</g>
	<g>
		<path fill="#FFFFFF" d="M23.9,13.6C27.6,21,35.2,26,43.9,26c8.8,0,16.3-5,20-12.4H23.9z"/>
		<path fill="#0A2120" d="M43.9,26.6c-8.8,0-16.6-4.9-20.5-12.7c-0.1-0.2-0.1-0.4,0-0.6c0.1-0.2,0.3-0.3,0.5-0.3h40
			c0.2,0,0.4,0.1,0.5,0.3c0.1,0.2,0.1,0.4,0,0.6C60.5,21.7,52.7,26.6,43.9,26.6z M24.9,14.2c3.8,6.9,11,11.2,19,11.2
			c8,0,15.1-4.3,19-11.2H24.9z"/>
	</g>
	<g>
		<path fill="#FFFFFF" d="M43.9,23.3c-5.9,0-11.3-2.6-15-6.9h29.9C55.2,20.7,49.8,23.3,43.9,23.3z"/>
		<path fill="#0A2120" d="M43.9,23.9c-6,0-11.6-2.6-15.4-7.2c-0.2-0.2-0.2-0.4-0.1-0.7c0.1-0.2,0.3-0.4,0.6-0.4h29.9
			c0.2,0,0.5,0.1,0.6,0.4c0.1,0.2,0.1,0.5-0.1,0.7C55.5,21.3,49.9,23.9,43.9,23.9z M30.3,17c3.5,3.6,8.4,5.7,13.6,5.7
			s10-2.1,13.6-5.7H30.3z"/>
	</g>
	<g>
		<rect x="16.7" y="5.5" fill="#FFFFFF" width="54.5" height="13"/>
		<path fill="#0A2120" d="M71.2,19.1H16.7c-0.3,0-0.6-0.3-0.6-0.6v-13c0-0.3,0.3-0.6,0.6-0.6h54.5c0.3,0,0.6,0.3,0.6,0.6v13
			C71.8,18.8,71.5,19.1,71.2,19.1z M17.3,17.9h53.3V6.1H17.3V17.9z"/>
	</g>
	<g>
		<rect x="14.4" y="4.2" fill="#FFFFFF" width="3.9" height="15.6"/>
		<path fill="#0A2120" d="M18.3,20.4h-3.9c-0.3,0-0.6-0.3-0.6-0.6V4.2c0-0.3,0.3-0.6,0.6-0.6h3.9c0.3,0,0.6,0.3,0.6,0.6v15.6
			C18.9,20.1,18.6,20.4,18.3,20.4z M15,19.2h2.7V4.8H15V19.2z"/>
	</g>
	<g>
		<path fill="#67BEBD" d="M12.5,9c-0.1,0-0.2,0-0.4-0.1l-3-2.1C8.9,6.6,8.8,6.2,9,5.9c0.2-0.3,0.6-0.3,0.9-0.1l3,2.1
			c0.3,0.2,0.3,0.6,0.1,0.9C12.9,8.9,12.7,9,12.5,9z M6.5,4.7c-0.1,0-0.2,0-0.4-0.1l-3-2.1C2.9,2.3,2.9,1.9,3,1.6
			c0.2-0.3,0.6-0.3,0.9-0.1l3,2.1C7.2,3.8,7.2,4.2,7,4.5C6.9,4.7,6.7,4.7,6.5,4.7z"/>
		<path fill="#67BEBD" d="M3.5,22.6c-0.2,0-0.4-0.1-0.5-0.3c-0.2-0.3-0.1-0.7,0.1-0.9l3-2.1c0.3-0.2,0.7-0.1,0.9,0.1
			c0.2,0.3,0.1,0.7-0.1,0.9l-3,2.1C3.8,22.6,3.7,22.6,3.5,22.6z M9.5,18.4c-0.2,0-0.4-0.1-0.5-0.3c-0.2-0.3-0.1-0.7,0.1-0.9l3-2.1
			c0.3-0.2,0.7-0.1,0.9,0.1c0.2,0.3,0.1,0.7-0.1,0.9l-3,2.1C9.8,18.3,9.6,18.4,9.5,18.4z"/>
	</g>
	<path fill="#67BEBD" d="M12.6,12.6H8.9c-0.3,0-0.6-0.3-0.6-0.6c0-0.3,0.3-0.6,0.6-0.6h3.7c0.3,0,0.6,0.3,0.6,0.6
		C13.2,12.3,13,12.6,12.6,12.6z M5.3,12.6H1.6C1.3,12.6,1,12.3,1,12c0-0.3,0.3-0.6,0.6-0.6h3.7c0.3,0,0.6,0.3,0.6,0.6
		C5.9,12.3,5.6,12.6,5.3,12.6z"/>
</g>
</svg>
