<?xml version="1.0" encoding="utf-8"?>
<!-- Generator: Adobe Illustrator 18.1.1, SVG Export Plug-In . SVG Version: 6.00 Build 0)  -->
<svg version="1.1" id="Layer_1" xmlns="http://www.w3.org/2000/svg" xmlns:xlink="http://www.w3.org/1999/xlink" x="0px" y="0px"
	 viewBox="0 0 124.4 102" enable-background="new 0 0 124.4 102" xml:space="preserve">
<g>
	<path fill="#67BEBD" d="M75.6,100.8h-4.4v-1h3.4v-0.2h1V100.8z M67.3,100.8h-3.9v-1h3.9V100.8z M59.5,100.8h-3.9v-1h3.9V100.8z
		 M51.7,100.8h-3.9v-1h3.9V100.8z M44,100.8h-3.9v-1H44V100.8z M36.2,100.8h-3.9v-1h3.9V100.8z M28.4,100.8h-3.9v-1h3.9V100.8z
		 M20.6,100.8h-3.9v-1h3.9V100.8z M14.7,99h-1v-3.9h1V99z M75.6,95.7h-1v-3.9h1V95.7z M14.7,91.2h-1v-3.9h1V91.2z M75.6,87.9h-1V84
		h1V87.9z M14.7,83.4h-1v-3.9h1V83.4z M75.6,80.2h-1v-3.9h1V80.2z M14.7,75.6h-1v-3.9h1V75.6z M75.6,72.4h-1v-3.9h1V72.4z
		 M14.7,67.9h-1V64h1V67.9z M75.6,64.6h-1v-3.9h1V64.6z M14.7,60.1h-1v-3.9h1V60.1z M75.6,56.8h-1v-3.9h1V56.8z M14.7,52.3h-1v-3.9
		h1V52.3z M75.6,49.1h-1v-3.9h1V49.1z M14.7,44.5h-1v-3.9h1V44.5z M75.6,41.3h-1v-3.9h1V41.3z M14.7,36.8h-1v-3.9h1V36.8z
		 M75.6,33.5h-1v-3.9h1V33.5z M14.7,29h-1v-3.9h1V29z M75.6,25.7h-1v-3.9h1V25.7z M14.7,21.2h-1v-3.9h1V21.2z M75.6,18h-1v-3.9h1V18
		z M14.7,13.4h-1V9.5h1V13.4z M75.6,10.2h-1V6.3h1V10.2z M14.7,5.7h-1V1.8h1V5.7z M75.6,2.4h-1V1.9h-2.4v-1h3.4V2.4z M68.3,1.9h-3.9
		v-1h3.9V1.9z M60.5,1.9h-3.9v-1h3.9V1.9z M52.7,1.9h-3.9v-1h3.9V1.9z M45,1.9h-3.9v-1H45V1.9z M37.2,1.9h-3.9v-1h3.9V1.9z
		 M29.4,1.9h-3.9v-1h3.9V1.9z M21.6,1.9h-3.9v-1h3.9V1.9z"/>
	<g>
		<rect x="44.7" y="31.2" fill="#FFFFFF" width="60.8" height="69.1"/>
		<path fill="#0A2120" d="M106,100.8H44.2V30.7H106V100.8z M45.2,99.8H105V31.7H45.2V99.8z"/>
	</g>
	<g>
		<line fill="#FFF7EC" x1="1.4" y1="100.3" x2="123.1" y2="100.3"/>
		<path fill="#231F20" d="M123.1,100.8H1.4c-0.3,0-0.5-0.2-0.5-0.5s0.2-0.5,0.5-0.5h121.7c0.3,0,0.5,0.2,0.5,0.5
			S123.4,100.8,123.1,100.8z"/>
	</g>
	<path fill="#0A2120" d="M37.9,25.1H22.6V9.8h15.2V25.1z M23.6,24.1h13.2V10.8H23.6V24.1z"/>
	<path fill="#0A2120" d="M37.9,47.2H22.6V32h15.2V47.2z M23.6,46.2h13.2V33H23.6V46.2z"/>
	<path fill="#0A2120" d="M37.9,69.4H22.6V54.2h15.2V69.4z M23.6,68.4h13.2V55.2H23.6V68.4z"/>
	<g>
		<rect x="75.1" y="73.1" fill="#FFFFFF" width="23" height="14.2"/>
		<path fill="#0A2120" d="M98.6,87.8h-24V72.6h24V87.8z M75.6,86.8h22V73.6h-22V86.8z"/>
	</g>
	<path fill="#0A2120" d="M37.9,91.6H22.6V76.3h15.2V91.6z M23.6,90.6h13.2V77.3H23.6V90.6z"/>
	<path fill="#0A2120" d="M66.2,25.1H51V9.8h15.2V25.1z M52,24.1h13.2V10.8H52V24.1z"/>
	<g>
		<rect x="51.5" y="39.6" fill="#FFFFFF" width="46.6" height="11.3"/>
		<path fill="#0A2120" d="M98.6,51.4H51V39.1h47.6V51.4z M52,50.4h45.6V40.1H52V50.4z"/>
	</g>
	<g>
		<rect x="51.5" y="56.8" fill="#FFFFFF" width="46.6" height="11.3"/>
		<path fill="#0A2120" d="M98.6,68.6H51V56.3h47.6V68.6z M52,67.6h45.6V57.3H52V67.6z"/>
	</g>
	<g>
		<rect x="51.5" y="74.3" fill="#FFFFFF" width="15.9" height="26.1"/>
		<path fill="#0A2120" d="M67.9,100.8H51V73.8h16.9V100.8z M52,99.8h14.9V74.8H52V99.8z"/>
	</g>
</g>
</svg>
