<svg
  xmlns="http://www.w3.org/2000/svg"
  viewBox="0 0 73 78"
  width="48"
  height="48"
>
  <g fill="none" fill-rule="evenodd">
    <path fill="silver" d="M2.767 3.92h67.466v70.173H2.767z"></path>
    <path fill="#262626" d="M2.767 3.92h67.466V0H2.767z"></path>
    <path fill="#6D6F70" d="M2.767 69.517h67.467v4.577H2.767z"></path>
    <path fill="#FFF" d="M28.067 48.16h16.867v27.459H28.067z"></path>
    <path fill="#52105B" d="M29.6 49.686h13.8V75.62H29.6z"></path>
    <g stroke="#FFF" strokeWidth="1.526">
      <path
        fill="#B6E1E3"
        d="M8.133 48.922h15.333v15.255H8.133z"
      ></path>
      <path
        strokeLinecap="square"
        d="M15.8 48.922v14.492M23.466 56.55H8.133"
      ></path>
    </g>
    <g stroke="#FFF" strokeWidth="1.526">
      <path
        fill="#B6E1E3"
        d="M8.133 28.328h15.333v15.255H8.133z"
      ></path>
      <path
        strokeLinecap="square"
        d="M15.8 28.328V42.82M23.466 35.956H8.133"
      ></path>
    </g>
    <g stroke="#FFF" strokeWidth="1.526">
      <path fill="#B6E1E3" d="M8.133 8.496h15.333v15.255H8.133z"></path>
      <path
        strokeLinecap="square"
        d="M15.8 8.496v14.492M23.466 16.124H8.133"
      ></path>
    </g>
    <g stroke="#FFF" strokeWidth="1.526">
      <path
        fill="#B6E1E3"
        d="M28.833 28.328h15.333v15.255H28.833z"
      ></path>
      <path
        strokeLinecap="square"
        d="M36.5 28.328V42.82M44.166 35.956H28.833"
      ></path>
    </g>
    <g stroke="#FFF" strokeWidth="1.526">
      <path
        fill="#B6E1E3"
        d="M28.833 8.496h15.333v15.255H28.833z"
      ></path>
      <path
        strokeLinecap="square"
        d="M36.5 8.496v14.492M44.166 16.124H28.833"
      ></path>
    </g>
    <g stroke="#FFF" strokeWidth="1.526">
      <path
        fill="#B6E1E3"
        d="M49.533 48.922h15.333v15.255H49.533z"
      ></path>
      <path
        strokeLinecap="square"
        d="M57.2 48.922v14.492M64.866 56.55H49.533"
      ></path>
    </g>
    <g stroke="#FFF" strokeWidth="1.526">
      <path
        fill="#B6E1E3"
        d="M49.533 28.328h15.333v15.255H49.533z"
      ></path>
      <path
        strokeLinecap="square"
        d="M57.2 28.328V42.82M64.866 35.956H49.533"
      ></path>
    </g>
    <g stroke="#FFF" strokeWidth="1.526">
      <path
        fill="#B6E1E3"
        d="M49.533 8.496h15.333v15.255H49.533z"
      ></path>
      <path
        strokeLinecap="square"
        d="M57.2 8.496v14.492M64.866 16.124H49.533"
      ></path>
    </g>
    <path
      fill="#262626"
      fill-opacity=".05"
      d="M36.5 3.92h33.733v70.173H36.5z"
    ></path>
    <path
      stroke="#262626"
      strokeLinecap="round"
      strokeWidth="4"
      d="M2 75.619h69"
    ></path>
    <g stroke="#000" strokeLinecap="round" strokeWidth=".763">
      <path d="M2.767 74.094v-10.68M21.167 74.094v-10.68M16.567 74.094v-10.68M11.967 74.094v-10.68M7.367 74.094v-10.68M25.767 74.094v-10.68M2 64.94h24.53"></path>
    </g>
    <g stroke="#000" strokeLinecap="round" strokeWidth=".763">
      <path d="M47.234 74.094v-10.68M65.634 74.094v-10.68M61.034 74.094v-10.68M56.434 74.094v-10.68M51.834 74.094v-10.68M70.234 74.094v-10.68M46.467 64.94h24.53"></path>
    </g>
  </g>
</svg>