<?xml version="1.0" encoding="utf-8"?>
<!-- Generator: Adobe Illustrator 18.1.1, SVG Export Plug-In . SVG Version: 6.00 Build 0)  -->
<svg version="1.1" id="Layer_1" xmlns="http://www.w3.org/2000/svg" xmlns:xlink="http://www.w3.org/1999/xlink" x="0px" y="0px"
	 viewBox="0 0 61.4 100" enable-background="new 0 0 61.4 100" xml:space="preserve">
<g>
	<path fill="#67BEBD" d="M15.2,64.1c-0.9,0-1.8-0.1-2.6-0.2c-0.3-0.1-0.5-0.4-0.5-0.7c0.1-0.3,0.4-0.5,0.7-0.5
		C13.9,63,15,63,16.1,63c0.3,0,0.6,0.2,0.6,0.5c0,0.3-0.2,0.6-0.5,0.6C15.9,64.1,15.6,64.1,15.2,64.1z M19.5,63.5
		c-0.2,0-0.5-0.2-0.5-0.4c-0.1-0.3,0.1-0.6,0.4-0.7c1-0.3,2-0.8,2.9-1.4c0.3-0.2,0.6-0.1,0.8,0.2c0.2,0.3,0.1,0.6-0.2,0.8
		c-1,0.6-2.1,1.2-3.2,1.5C19.6,63.5,19.5,63.5,19.5,63.5z M9.5,62.9c-0.1,0-0.2,0-0.2-0.1c-1.1-0.5-2.1-1.1-3-1.9
		C6,60.7,6,60.3,6.2,60.1C6.4,59.9,6.7,59.8,7,60c0.8,0.7,1.8,1.3,2.8,1.7c0.3,0.1,0.4,0.5,0.3,0.8C9.9,62.7,9.7,62.9,9.5,62.9z
		 M25.2,59.8c-0.1,0-0.3-0.1-0.4-0.2c-0.2-0.2-0.2-0.6,0-0.8c0.7-0.8,1.4-1.7,1.9-2.6c0.2-0.3,0.5-0.4,0.8-0.2
		c0.3,0.2,0.4,0.5,0.2,0.8c-0.6,1-1.3,2-2.1,2.9C25.5,59.8,25.3,59.8,25.2,59.8z M4.3,58.6c-0.2,0-0.3-0.1-0.5-0.2
		c-0.7-1-1.3-2-1.7-3.1c-0.1-0.3,0-0.6,0.3-0.7c0.3-0.1,0.6,0,0.7,0.3c0.4,1,0.9,2,1.6,2.9c0.2,0.3,0.1,0.6-0.1,0.8
		C4.5,58.5,4.4,58.6,4.3,58.6z M28.4,53.9c0,0-0.1,0-0.1,0c-0.3-0.1-0.5-0.4-0.4-0.7c0.3-1.1,0.4-2.1,0.4-3.2c0,0,0,0,0,0
		c0,0,0,0,0-0.1c0-1.1-0.2-2.2-0.4-3.2c-0.1-0.3,0.1-0.6,0.4-0.7c0.3-0.1,0.6,0.1,0.7,0.4c0.3,1.1,0.5,2.3,0.5,3.5c0,0,0,0,0,0
		c0,0,0,0,0,0.1c0,1.2-0.1,2.4-0.4,3.5C28.9,53.7,28.7,53.9,28.4,53.9z M1.8,52.3c-0.3,0-0.5-0.2-0.6-0.5c-0.1-0.6-0.1-1.2-0.1-1.8
		c0-0.6,0-1.2,0.1-1.7c0-0.3,0.3-0.5,0.6-0.5c0.3,0,0.5,0.3,0.5,0.6c-0.1,0.5-0.1,1.1-0.1,1.6c0,0.6,0,1.1,0.1,1.7
		C2.4,52,2.1,52.2,1.8,52.3C1.8,52.3,1.8,52.3,1.8,52.3z M2.6,45.6c-0.1,0-0.1,0-0.2,0c-0.3-0.1-0.4-0.4-0.3-0.7
		c0.4-1.1,1-2.1,1.7-3.1c0.2-0.3,0.5-0.3,0.8-0.1c0.3,0.2,0.3,0.5,0.1,0.8c-0.6,0.9-1.2,1.9-1.6,2.9C3,45.4,2.8,45.6,2.6,45.6z
		 M27.1,43.9c-0.2,0-0.4-0.1-0.5-0.3c-0.5-0.9-1.2-1.8-1.9-2.6c-0.2-0.2-0.2-0.6,0-0.8c0.2-0.2,0.6-0.2,0.8,0
		c0.8,0.9,1.5,1.8,2.1,2.9c0.2,0.3,0.1,0.6-0.2,0.8C27.3,43.9,27.2,43.9,27.1,43.9z M6.5,40.1c-0.2,0-0.3-0.1-0.4-0.2
		c-0.2-0.2-0.2-0.6,0.1-0.8c0.9-0.8,1.9-1.4,3-1.9c0.3-0.1,0.6,0,0.8,0.3c0.1,0.3,0,0.6-0.3,0.8c-1,0.5-1.9,1.1-2.7,1.8
		C6.8,40.1,6.7,40.1,6.5,40.1z M22.5,39c-0.1,0-0.2,0-0.3-0.1c-0.9-0.6-1.9-1-3-1.4c-0.3-0.1-0.5-0.4-0.4-0.7
		c0.1-0.3,0.4-0.5,0.7-0.4c1.1,0.4,2.2,0.9,3.2,1.5c0.3,0.2,0.3,0.5,0.2,0.8C22.8,38.9,22.6,39,22.5,39z M12.6,37.2
		c-0.3,0-0.5-0.2-0.6-0.5c-0.1-0.3,0.1-0.6,0.4-0.7c1.2-0.2,2.4-0.3,3.5-0.2c0.3,0,0.6,0.3,0.5,0.6c0,0.3-0.2,0.6-0.6,0.5
		c-1.1-0.1-2.2,0-3.3,0.2C12.7,37.2,12.7,37.2,12.6,37.2z"/>
	<g>
		<path fill="#FFFFFF" d="M11.7,48.9c0,0,12,2.1,20.9,18.6c0,0,6.6-34.3,27.5-66.2c0,0-12.4,54.5-21.4,92.7
			C34,114.1,22.5,63.4,11.7,48.9z"/>
		<path fill="#0A2120" d="M35.9,99.3c-3.2,0-6.8-8.7-12.2-22.8c-3.9-10.1-8.3-21.5-12.5-27.1c-0.1-0.2-0.2-0.4,0-0.6
			c0.1-0.2,0.4-0.3,0.6-0.3c0.5,0.1,11.7,2.2,20.6,17.6c1.5-7,9-37,27.3-65c0.2-0.2,0.4-0.3,0.7-0.2c0.3,0.1,0.4,0.4,0.3,0.6
			c-0.1,0.5-12.5,55-21.4,92.7c-0.8,3.4-1.8,5-3.2,5.1C36,99.2,36,99.3,35.9,99.3z M13.1,49.9c3.9,6,7.9,16.2,11.7,26.1
			c4,10.4,8.5,22.1,11.1,22.1c0,0,0,0,0.1,0c0.5,0,1.3-0.6,2.2-4.2c7.7-32.5,17.9-77.3,20.7-89.5c-19.3,30.7-25.6,63-25.6,63.3
			c0,0.2-0.2,0.4-0.5,0.5c-0.2,0-0.5-0.1-0.6-0.3C25.3,55.1,16.5,51.1,13.1,49.9z"/>
	</g>
</g>
</svg>
