<?xml version="1.0" encoding="utf-8"?>
<!-- Generator: Adobe Illustrator 18.1.1, SVG Export Plug-In . SVG Version: 6.00 Build 0)  -->
<svg version="1.1" id="Layer_1" xmlns="http://www.w3.org/2000/svg" xmlns:xlink="http://www.w3.org/1999/xlink" x="0px" y="0px"
	 viewBox="0 0 109.2 109.9" enable-background="new 0 0 109.2 109.9" xml:space="preserve">
<g>
	<g>
		<g>
			<circle fill="#FFFFFF" cx="54.6" cy="25.3" r="5.4"/>
			<path fill="#0A2120" d="M54.6,31.2c-3.2,0-5.9-2.6-5.9-5.9c0-3.2,2.6-5.9,5.9-5.9c3.2,0,5.9,2.6,5.9,5.9
				C60.5,28.5,57.8,31.2,54.6,31.2z M54.6,20.4c-2.7,0-4.9,2.2-4.9,4.9s2.2,4.9,4.9,4.9s4.9-2.2,4.9-4.9S57.3,20.4,54.6,20.4z"/>
		</g>
		<g>
			<rect x="26.7" y="29" fill="#FFFFFF" width="55.9" height="61.9"/>
			<path fill="#0A2120" d="M83,91.5H26.2V28.5H83V91.5z M27.2,90.5H82V29.5H27.2V90.5z"/>
		</g>
		<g>
			<rect x="38" y="25.3" fill="#FFFFFF" width="33.2" height="7.5"/>
			<path fill="#0A2120" d="M71.7,33.3H37.5v-8.5h34.2V33.3z M38.5,32.3h32.2v-6.5H38.5V32.3z"/>
		</g>
		<rect x="43.2" y="44.1" fill="#0A2120" width="28" height="2"/>
		<rect x="43.2" y="59" fill="#0A2120" width="28" height="2"/>
		<rect x="43.2" y="74.1" fill="#0A2120" width="28" height="2"/>
	</g>
	<path fill="#67BEBD" d="M52.7,109.2c-1.3,0-2.6-0.1-3.9-0.3l0.1-1c1.3,0.1,2.6,0.2,3.8,0.3L52.7,109.2z M56.7,109.2l0-1
		c1.3,0,2.6-0.1,3.8-0.3l0.1,1C59.3,109,58,109.1,56.7,109.2z M44.9,108.3c-1.3-0.2-2.6-0.5-3.8-0.8l0.3-1c1.2,0.3,2.5,0.6,3.8,0.8
		L44.9,108.3z M64.4,108.3l-0.2-1c1.3-0.2,2.5-0.5,3.8-0.8l0.3,1C67,107.8,65.7,108.1,64.4,108.3z M37.4,106.4
		c-1.2-0.4-2.5-0.9-3.7-1.4l0.4-0.9c1.2,0.5,2.4,1,3.6,1.4L37.4,106.4z M72,106.3l-0.3-0.9c1.2-0.4,2.4-0.9,3.6-1.4l0.4,0.9
		C74.5,105.4,73.3,105.9,72,106.3z M30.1,103.3c-1.2-0.6-2.3-1.2-3.4-1.9l0.5-0.9c1.1,0.7,2.2,1.3,3.4,1.9L30.1,103.3z M79.2,103.2
		l-0.5-0.9c1.1-0.6,2.3-1.2,3.4-1.9l0.5,0.9C81.5,102,80.4,102.6,79.2,103.2z M23.4,99.3c-1.1-0.8-2.1-1.6-3.1-2.4l0.6-0.8
		c1,0.8,2,1.6,3.1,2.3L23.4,99.3z M85.9,99.1l-0.6-0.8c1-0.7,2.1-1.5,3-2.4l0.6,0.8C88,97.6,87,98.4,85.9,99.1z M17.4,94.2
		c-0.9-0.9-1.9-1.8-2.7-2.8l0.7-0.7c0.9,1,1.8,1.9,2.7,2.8L17.4,94.2z M91.9,94.1l-0.7-0.7c0.9-0.9,1.8-1.8,2.7-2.8l0.7,0.7
		C93.8,92.3,92.9,93.2,91.9,94.1z M12.1,88.4c-0.8-1-1.6-2.1-2.3-3.2l0.8-0.6c0.7,1.1,1.5,2.1,2.3,3.1L12.1,88.4z M97.2,88.3
		l-0.8-0.6c0.8-1,1.5-2.1,2.2-3.1l0.8,0.6C98.7,86.2,98,87.2,97.2,88.3z M7.8,81.9c-0.6-1.1-1.3-2.3-1.8-3.5L6.9,78
		c0.5,1.2,1.1,2.3,1.8,3.4L7.8,81.9z M101.5,81.7l-0.9-0.5c0.6-1.1,1.2-2.3,1.8-3.4l0.9,0.4C102.7,79.4,102.1,80.6,101.5,81.7z
		 M4.4,74.8c-0.5-1.2-0.9-2.5-1.3-3.7l1-0.3c0.4,1.2,0.8,2.4,1.3,3.6L4.4,74.8z M104.8,74.6l-0.9-0.4c0.5-1.2,0.9-2.4,1.2-3.6l1,0.3
		C105.7,72.2,105.3,73.4,104.8,74.6z M2.1,67.3c-0.3-1.3-0.5-2.6-0.7-3.9l1-0.1c0.2,1.3,0.4,2.5,0.7,3.8L2.1,67.3z M107.1,67.1
		l-1-0.2c0.3-1.3,0.5-2.5,0.7-3.8l1,0.1C107.6,64.5,107.4,65.8,107.1,67.1z M1,59.6c-0.1-1.3-0.2-2.6-0.2-3.9l1,0
		c0,1.3,0.1,2.6,0.2,3.8L1,59.6z M108.2,59.4l-1-0.1c0.1-1.3,0.1-2.6,0.1-3.8l0-0.5l1,0l0,0.5C108.3,56.7,108.3,58.1,108.2,59.4z
		 M1.9,51.8l-1-0.1c0.1-1.3,0.2-2.6,0.4-3.9l1,0.1C2.2,49.2,2,50.5,1.9,51.8z M107.2,51.1c-0.1-1.3-0.3-2.6-0.4-3.8l1-0.2
		c0.2,1.3,0.4,2.6,0.5,3.9L107.2,51.1z M3,44.2L2,44c0.3-1.3,0.6-2.6,1-3.8l1,0.3C3.6,41.7,3.3,42.9,3,44.2z M106,43.5
		c-0.3-1.2-0.6-2.5-1-3.7l1-0.3c0.4,1.2,0.7,2.5,1,3.8L106,43.5z M5.2,36.8l-0.9-0.4c0.5-1.2,1-2.4,1.5-3.6l0.9,0.4
		C6.1,34.4,5.6,35.6,5.2,36.8z M103.7,36.2c-0.5-1.2-1-2.4-1.5-3.5l0.9-0.4c0.6,1.2,1.1,2.4,1.6,3.6L103.7,36.2z M8.4,29.8l-0.9-0.5
		c0.6-1.1,1.3-2.3,2-3.4l0.8,0.5C9.7,27.6,9.1,28.7,8.4,29.8z M100.4,29.3c-0.6-1.1-1.3-2.2-2-3.3l0.8-0.6c0.7,1.1,1.4,2.2,2.1,3.3
		L100.4,29.3z M12.7,23.4l-0.8-0.6c0.8-1,1.6-2.1,2.5-3l0.7,0.7C14.3,21.4,13.4,22.4,12.7,23.4z M96.1,22.9c-0.8-1-1.6-2-2.5-2.9
		l0.7-0.7c0.9,1,1.7,2,2.5,3L96.1,22.9z M17.8,17.6l-0.7-0.7C18,16,19,15.1,20,14.3l0.6,0.8C19.6,15.9,18.7,16.7,17.8,17.6z
		 M90.9,17.2C90,16.3,89,15.4,88,14.6l0.6-0.8c1,0.8,2,1.7,2.9,2.6L90.9,17.2z M23.7,12.7l-0.6-0.8c1-0.8,2.1-1.5,3.3-2.2l0.5,0.8
		C25.8,11.2,24.7,11.9,23.7,12.7z M85,12.3c-1-0.7-2.1-1.4-3.2-2.1l0.5-0.9c1.1,0.7,2.2,1.4,3.3,2.1L85,12.3z M30.2,8.6l-0.5-0.9
		c1.2-0.6,2.3-1.2,3.5-1.7L33.7,7C32.5,7.5,31.3,8,30.2,8.6z M78.4,8.3c-1.1-0.6-2.3-1.1-3.5-1.6l0.4-0.9c1.2,0.5,2.4,1.1,3.6,1.6
		L78.4,8.3z M37.2,5.6l-0.3-0.9c1.2-0.4,2.5-0.8,3.8-1.2l0.3,1C39.7,4.8,38.5,5.2,37.2,5.6z M71.3,5.4c-1.2-0.4-2.5-0.8-3.7-1.1
		l0.2-1c1.3,0.3,2.5,0.7,3.8,1.1L71.3,5.4z M44.7,3.6l-0.2-1c1.3-0.2,2.6-0.4,3.9-0.6l0.1,1C47.2,3.2,45.9,3.4,44.7,3.6z M63.8,3.5
		c-1.3-0.2-2.5-0.4-3.8-0.5l0.1-1c1.3,0.1,2.6,0.3,3.9,0.5L63.8,3.5z M52.3,2.7l0-1c1.3-0.1,2.6-0.1,3.9,0l0,1
		C54.9,2.7,53.6,2.7,52.3,2.7z"/>
	<circle fill="#0A2120" cx="35.3" cy="45.1" r="2.7"/>
	<circle fill="#0A2120" cx="35.3" cy="60" r="2.7"/>
	<circle fill="#0A2120" cx="35.3" cy="75.1" r="2.7"/>
</g>
</svg>
