<?xml version="1.0" encoding="utf-8"?>
<!-- Generator: Adobe Illustrator 18.1.1, SVG Export Plug-In . SVG Version: 6.00 Build 0)  -->
<svg version="1.1" id="Layer_1" xmlns="http://www.w3.org/2000/svg" xmlns:xlink="http://www.w3.org/1999/xlink" x="0px" y="0px"
	 viewBox="0 0 115.2 103" enable-background="new 0 0 115.2 103" xml:space="preserve">
<g>
	<path fill="#67BEBD" d="M88.4,57.5c-0.8,0-1.5,0-2.3-0.1l0.1-1c1.3,0.1,2.6,0.1,3.8,0l0.1,1C89.5,57.5,88.9,57.5,88.4,57.5z
		 M94,56.9l-0.2-1c1.2-0.3,2.5-0.6,3.6-1.1l0.4,0.9C96.5,56.3,95.3,56.7,94,56.9z M82.2,56.8c-1.3-0.3-2.5-0.7-3.8-1.2l0.4-0.9
		c1.2,0.5,2.4,0.9,3.6,1.2L82.2,56.8z M101.3,54.1l-0.5-0.9c1.1-0.6,2.2-1.3,3.2-2.1l0.6,0.8C103.6,52.7,102.5,53.5,101.3,54.1z
		 M74.9,53.8c-1.1-0.7-2.2-1.4-3.2-2.3l0.6-0.8c1,0.8,2,1.5,3.1,2.2L74.9,53.8z M107.5,49.2l-0.7-0.7c0.9-0.9,1.7-1.9,2.4-3l0.8,0.6
		C109.3,47.2,108.4,48.3,107.5,49.2z M68.8,48.8c-0.9-1-1.7-2-2.4-3.1l0.8-0.5c0.7,1.1,1.5,2.1,2.3,3L68.8,48.8z M112,42.7l-0.9-0.4
		c0.6-1.1,1-2.3,1.4-3.5l1,0.3C113.1,40.3,112.6,41.6,112,42.7z M64.5,42.2c-0.5-1.2-1-2.4-1.4-3.7l1-0.3c0.3,1.2,0.8,2.4,1.3,3.6
		L64.5,42.2z M114.4,35.2l-1-0.1c0.2-1.2,0.3-2.5,0.3-3.8h1C114.7,32.6,114.6,33.9,114.4,35.2z M62.3,34.6c-0.1-1.1-0.2-2.2-0.2-3.3
		c0-0.2,0-0.4,0-0.6l1,0c0,0.2,0,0.4,0,0.6c0,1.1,0.1,2.2,0.2,3.2L62.3,34.6z M113.5,28.6c-0.1-1.3-0.4-2.5-0.7-3.7l1-0.3
		c0.3,1.3,0.6,2.6,0.7,3.9L113.5,28.6z M63.5,26.9l-1-0.2c0.2-1.3,0.6-2.6,1-3.8l0.9,0.3C64,24.4,63.7,25.6,63.5,26.9z M111.6,21.3
		c-0.5-1.2-1.1-2.3-1.8-3.4l0.8-0.5c0.7,1.1,1.3,2.3,1.8,3.5L111.6,21.3z M65.9,19.7L65,19.2c0.6-1.2,1.3-2.3,2.1-3.4l0.8,0.6
		C67.1,17.5,66.5,18.5,65.9,19.7z M107.6,14.8c-0.8-1-1.7-1.9-2.7-2.7l0.7-0.8c1,0.9,1.9,1.8,2.8,2.8L107.6,14.8z M70.3,13.5
		l-0.7-0.7c0.9-0.9,1.9-1.8,3-2.6l0.6,0.8C72.2,11.8,71.2,12.6,70.3,13.5z M101.9,9.9c-1.1-0.7-2.2-1.3-3.4-1.8l0.4-0.9
		c1.2,0.5,2.4,1.2,3.5,1.9L101.9,9.9z M76.4,9l-0.5-0.9c1.2-0.6,2.4-1.2,3.6-1.6l0.3,0.9C78.7,7.8,77.5,8.4,76.4,9z M94.9,6.8
		c-1.2-0.3-2.5-0.6-3.7-0.7l0.1-1c1.3,0.1,2.6,0.4,3.9,0.7L94.9,6.8z M83.6,6.4l-0.2-1C84.7,5.2,86,5,87.3,5l0,1
		C86.1,6,84.8,6.2,83.6,6.4z"/>
	<g>
		<g>
			<path fill="#0A2120" d="M88.9,102.2H7.6v-61L7.8,41l40.4-31l40.6,31.1V102.2z M8.6,101.2h79.3V41.6L48.2,11.3L8.6,41.6V101.2z"/>
		</g>
		<g>
			<path fill="#0A2120" d="M0.8,47.4V37L1,36.8L47.8,1.1L95.7,37v10.4L47.8,11.5L0.8,47.4z M47.8,10.2l46.9,35.2v-7.9L47.8,2.3
				l-46,35.2v7.9L47.8,10.2z"/>
		</g>
		<g>
			<path fill="#0A2120" d="M56.6,102.2H39.9V72.4h16.7V102.2z M40.9,101.2h14.7V73.4H40.9V101.2z"/>
		</g>
		<g>
			<g>
				<path fill="#0A2120" d="M41.7,62.9H19.5V40.7h22.2V62.9z M20.5,61.9h20.2V41.7H20.5V61.9z"/>
			</g>
			<g>
				<path fill="#0A2120" d="M77,62.9H54.8V40.7H77V62.9z M55.8,61.9H76V41.7H55.8V61.9z"/>
			</g>
		</g>
	</g>
</g>
</svg>
