<?xml version="1.0" encoding="utf-8"?>
<!-- Generator: Adobe Illustrator 18.1.1, SVG Export Plug-In . SVG Version: 6.00 Build 0)  -->
<svg version="1.1" id="Layer_1" xmlns="http://www.w3.org/2000/svg" xmlns:xlink="http://www.w3.org/1999/xlink" x="0px" y="0px"
	 viewBox="0 0 143.3 94.4" enable-background="new 0 0 143.3 94.4" xml:space="preserve">
<g>
	<g>
		<g>
			<polygon fill="#FFFFFF" points="69.1,79.3 6.6,79.3 6.6,32.4 37.9,8.5 69.1,32.4 			"/>
			<path fill="#0A2120" d="M69.1,79.9H6.6c-0.3,0-0.6-0.3-0.6-0.6V32.4c0-0.2,0.1-0.4,0.2-0.5L37.5,8.1c0.2-0.2,0.5-0.2,0.7,0
				L69.4,32c0.2,0.1,0.2,0.3,0.2,0.5v46.9C69.7,79.7,69.4,79.9,69.1,79.9z M7.2,78.7h61.2v-46L37.9,9.3L7.2,32.7V78.7z"/>
		</g>
		<g>
			<polygon fill="#FFFFFF" points="74.4,29.2 37.5,1.6 1.3,29.2 1.3,36.3 37.5,8.7 74.4,36.3 			"/>
			<path fill="#0A2120" d="M74.4,36.9c-0.1,0-0.3,0-0.4-0.1L37.5,9.5L1.7,36.8c-0.2,0.1-0.4,0.2-0.6,0.1c-0.2-0.1-0.3-0.3-0.3-0.5
				v-7.1c0-0.2,0.1-0.4,0.2-0.5L37.1,1.1c0.2-0.2,0.5-0.2,0.7,0l36.9,27.6c0.2,0.1,0.2,0.3,0.2,0.5v7.1c0,0.2-0.1,0.4-0.3,0.5
				C74.6,36.9,74.5,36.9,74.4,36.9z M37.5,8.1c0.1,0,0.3,0,0.4,0.1l35.9,26.9v-5.6L37.5,2.3L1.9,29.5v5.6L37.1,8.2
				C37.3,8.1,37.4,8.1,37.5,8.1z"/>
		</g>
		<g>
			<polygon fill="#FFFFFF" points="136.8,79.3 74.4,79.3 74.4,32.4 105.6,8.5 136.8,32.4 			"/>
			<path fill="#0A2120" d="M136.8,79.9H74.4c-0.3,0-0.6-0.3-0.6-0.6V32.4c0-0.2,0.1-0.4,0.2-0.5l31.2-23.9c0.2-0.2,0.5-0.2,0.7,0
				L137.2,32c0.2,0.1,0.2,0.3,0.2,0.5v46.9C137.4,79.7,137.1,79.9,136.8,79.9z M75,78.7h61.2v-46L105.6,9.3L75,32.7V78.7z"/>
		</g>
		<g>
			<polygon fill="#FFFFFF" points="142.1,29.2 105.3,1.6 69.1,29.2 69.1,36.3 105.3,8.7 142.1,36.3 			"/>
			<path fill="#0A2120" d="M142.1,36.9c-0.1,0-0.3,0-0.4-0.1L105.3,9.5L69.4,36.8c-0.2,0.1-0.4,0.2-0.6,0.1
				c-0.2-0.1-0.3-0.3-0.3-0.5v-7.1c0-0.2,0.1-0.4,0.2-0.5l36.2-27.6c0.2-0.2,0.5-0.2,0.7,0l36.9,27.6c0.2,0.1,0.2,0.3,0.2,0.5v7.1
				c0,0.2-0.1,0.4-0.3,0.5C142.3,36.9,142.2,36.9,142.1,36.9z M105.3,8.1c0.1,0,0.3,0,0.4,0.1l35.9,26.9v-5.6L105.3,2.3L69.7,29.5
				v5.6l35.2-26.9C105,8.1,105.1,8.1,105.3,8.1z"/>
		</g>
	</g>
	<g>
		<g>
			<polygon fill="#FFFFFF" points="102.9,92.9 40.5,92.9 40.5,46 71.7,22.1 102.9,46 			"/>
			<path fill="#0A2120" d="M102.9,93.5H40.5c-0.3,0-0.6-0.3-0.6-0.6V46c0-0.2,0.1-0.4,0.2-0.5l31.2-23.9c0.2-0.2,0.5-0.2,0.7,0
				l31.2,23.9c0.2,0.1,0.2,0.3,0.2,0.5v46.9C103.5,93.2,103.3,93.5,102.9,93.5z M41.1,92.3h61.2v-46L71.7,22.9L41.1,46.3V92.3z"/>
		</g>
		<g>
			<polygon fill="#FFFFFF" points="108.3,42.8 71.4,15.1 35.2,42.8 35.2,49.9 71.4,22.3 108.3,49.9 			"/>
			<path fill="#0A2120" d="M108.3,50.5c-0.1,0-0.3,0-0.4-0.1L71.4,23L35.6,50.4c-0.2,0.1-0.4,0.2-0.6,0.1c-0.2-0.1-0.3-0.3-0.3-0.5
				v-7.1c0-0.2,0.1-0.4,0.2-0.5L71,14.6c0.2-0.2,0.5-0.2,0.7,0l36.9,27.6c0.2,0.1,0.2,0.3,0.2,0.5v7.1c0,0.2-0.1,0.4-0.3,0.5
				C108.4,50.5,108.3,50.5,108.3,50.5z M71.4,21.7c0.1,0,0.3,0,0.4,0.1l35.9,26.9v-5.6L71.4,15.9L35.8,43.1v5.6L71,21.8
				C71.1,21.7,71.3,21.7,71.4,21.7z"/>
		</g>
		<g>
			<rect x="65.6" y="70.5" fill="#FFFFFF" width="12.2" height="22.4"/>
			<path fill="#0A2120" d="M77.8,93.5H65.6c-0.3,0-0.6-0.3-0.6-0.6V70.5c0-0.3,0.3-0.6,0.6-0.6h12.2c0.3,0,0.6,0.3,0.6,0.6v22.4
				C78.4,93.2,78.2,93.5,77.8,93.5z M66.2,92.3h11V71.1h-11V92.3z"/>
		</g>
		<g>
			<g>
				<rect x="49.7" y="45.9" fill="#FFFFFF" width="16.5" height="16.5"/>
				<path fill="#0A2120" d="M66.3,63H49.7c-0.3,0-0.6-0.3-0.6-0.6V45.9c0-0.3,0.3-0.6,0.6-0.6h16.5c0.3,0,0.6,0.3,0.6,0.6v16.5
					C66.9,62.7,66.6,63,66.3,63z M50.4,61.8h15.3V46.5H50.4V61.8z"/>
			</g>
			<g>
				<rect x="77.2" y="45.9" fill="#FFFFFF" width="16.5" height="16.5"/>
				<path fill="#0A2120" d="M93.7,63H77.2c-0.3,0-0.6-0.3-0.6-0.6V45.9c0-0.3,0.3-0.6,0.6-0.6h16.5c0.3,0,0.6,0.3,0.6,0.6v16.5
					C94.3,62.7,94,63,93.7,63z M77.8,61.8h15.3V46.5H77.8V61.8z"/>
			</g>
		</g>
	</g>
	<path fill="#67BEBD" d="M58,12.5c-0.1,0-0.2,0-0.3-0.1c-0.3-0.2-0.4-0.6-0.2-0.8c0.7-1.1,1.5-2.1,2.3-3c0.2-0.2,0.6-0.2,0.9,0
		s0.2,0.6,0,0.9c-0.8,0.8-1.6,1.8-2.2,2.7C58.4,12.4,58.2,12.5,58,12.5z M85,12.5c-0.2,0-0.4-0.1-0.5-0.3c-0.6-0.8-1.2-1.6-2-2.4
		c-0.2-0.2-0.2-0.6,0-0.9c0.2-0.2,0.6-0.2,0.9,0c0.8,0.8,1.5,1.6,2.1,2.5c0.2,0.3,0.1,0.7-0.2,0.8C85.3,12.5,85.2,12.5,85,12.5z
		 M80.2,7.7c-0.1,0-0.2,0-0.3-0.1c-1-0.7-2-1.2-3.1-1.7c-0.3-0.1-0.5-0.5-0.3-0.8c0.1-0.3,0.5-0.5,0.8-0.3c1.1,0.5,2.3,1.1,3.3,1.8
		c0.3,0.2,0.3,0.6,0.2,0.8C80.6,7.6,80.4,7.7,80.2,7.7z M63.1,7.4c-0.2,0-0.4-0.1-0.5-0.3c-0.2-0.3-0.1-0.7,0.2-0.8
		c1.1-0.7,2.2-1.2,3.4-1.6c0.3-0.1,0.7,0.1,0.8,0.4c0.1,0.3-0.1,0.7-0.4,0.8c-1.1,0.4-2.2,0.9-3.2,1.5C63.3,7.4,63.2,7.4,63.1,7.4z
		 M73.5,5.1C73.5,5.1,73.5,5.1,73.5,5.1c-1.2-0.2-2.4-0.2-3.6,0c-0.3,0-0.6-0.2-0.7-0.5c0-0.3,0.2-0.6,0.5-0.7
		c1.2-0.1,2.5-0.1,3.8,0c0.3,0,0.6,0.3,0.5,0.7C74.1,4.9,73.8,5.1,73.5,5.1z"/>
	
		<path fill="#F3F3F3" stroke="#0A2120" strokeWidth="1.2144" strokeLinecap="round" strokeLinejoin="round" stroke-miterlimit="10" d="
		M71.7,33.5"/>
</g>
</svg>
