<?xml version="1.0" encoding="utf-8"?>
<!-- Generator: Adobe Illustrator 18.1.1, SVG Export Plug-In . SVG Version: 6.00 Build 0)  -->
<svg version="1.1" id="Layer_1" xmlns="http://www.w3.org/2000/svg" xmlns:xlink="http://www.w3.org/1999/xlink" x="0px" y="0px"
	 viewBox="0 0 73.2 107.4" enable-background="new 0 0 73.2 107.4" xml:space="preserve">
<g>
	<g>
		<circle fill="#FFFFFF" cx="36.6" cy="23.3" r="13.7"/>
		<path fill="#0A2120" d="M36.6,37.5c-7.9,0-14.2-6.4-14.2-14.2S28.8,9,36.6,9c7.9,0,14.2,6.4,14.2,14.2S44.5,37.5,36.6,37.5z
			 M36.6,10c-7.3,0-13.2,5.9-13.2,13.2s5.9,13.2,13.2,13.2s13.2-5.9,13.2-13.2S43.9,10,36.6,10z"/>
	</g>
	<g>
		<rect x="35" y="0.5" fill="#FFFFFF" width="3.2" height="18.1"/>
		<path fill="#0A2120" d="M38.7,19.1h-4.2V0h4.2V19.1z M35.5,18.1h2.2V1h-2.2V18.1z"/>
	</g>
	<g>
		<polygon fill="#FFFFFF" points="31.4,25.8 1.2,91 2.3,102.1 12.9,95.3 43.4,30.2 		"/>
		<path fill="#0A2120" d="M1.8,103L0.7,90.9l0.1-0.1l30.3-65.6l13,4.7L13.3,95.6L1.8,103z M1.7,91.1l0.9,10.2l9.9-6.3l30.2-64.5
			l-11.1-4.1L1.7,91.1z"/>
	</g>
	<g>
		<polygon fill="#FFFFFF" points="41.8,25.8 72,91 71,102.1 60.3,95.3 29.8,30.2 		"/>
		<path fill="#0A2120" d="M71.4,103l-11.5-7.3L29.1,29.9l12.9-4.7l0.2,0.4l30.3,65.3L71.4,103z M60.7,95l9.9,6.3l0.9-10.2l-30-64.7
			l-11.1,4.1L60.7,95z"/>
	</g>
	<g>
		<circle fill="#FFFFFF" cx="36.6" cy="30.2" r="6.8"/>
		<path fill="#0A2120" d="M36.6,37.5c-4,0-7.3-3.3-7.3-7.3s3.3-7.3,7.3-7.3c4,0,7.3,3.3,7.3,7.3S40.6,37.5,36.6,37.5z M36.6,23.9
			c-3.5,0-6.3,2.8-6.3,6.3c0,3.5,2.8,6.3,6.3,6.3c3.5,0,6.3-2.8,6.3-6.3C42.9,26.7,40.1,23.9,36.6,23.9z"/>
	</g>
	<g>
		<path fill="#FFFFFF" d="M13.4,98.1c0,0,20.9,18.7,45,0"/>
		<g>
			<path fill="#67BEBD" d="M14.7,99.7c-1-0.7-1.5-1.2-1.6-1.2l0.7-0.7c0,0,0.5,0.5,1.5,1.2L14.7,99.7z"/>
			<path fill="#67BEBD" d="M36,106.9c-0.7,0-1.5,0-2.2-0.1l0.1-1c1.3,0.1,2.7,0.1,4,0l0.1,1C37.3,106.9,36.7,106.9,36,106.9z
				 M42.1,106.3l-0.2-1c1.3-0.2,2.6-0.6,3.9-1l0.3,1C44.8,105.7,43.4,106,42.1,106.3z M29.7,106.3c-1.3-0.3-2.7-0.6-4-1l0.3-1
				c1.3,0.4,2.6,0.7,3.9,1L29.7,106.3z M50,103.8l-0.4-0.9c1.2-0.5,2.4-1.2,3.6-1.9l0.5,0.9C52.4,102.6,51.2,103.2,50,103.8z
				 M21.8,103.8c-1.3-0.6-2.5-1.2-3.7-1.9l0.5-0.9c1.2,0.7,2.4,1.3,3.6,1.8L21.8,103.8z"/>
			<path fill="#67BEBD" d="M57.1,99.6l-0.6-0.8c0.5-0.4,1-0.8,1.5-1.2l0.6,0.8C58.2,98.9,57.6,99.2,57.1,99.6z"/>
		</g>
	</g>
</g>
</svg>
