<?xml version="1.0" encoding="utf-8"?>
<!-- Generator: Adobe Illustrator 18.1.1, SVG Export Plug-In . SVG Version: 6.00 Build 0)  -->
<svg version="1.1" id="Layer_1" xmlns="http://www.w3.org/2000/svg" xmlns:xlink="http://www.w3.org/1999/xlink" x="0px" y="0px"
	 viewBox="0 0 86.9 87.7" enable-background="new 0 0 86.9 87.7" xml:space="preserve">
<g>
	<path fill="#0A2120" d="M46.5,53.2c-0.9,0-1.4-0.1-1.4-0.1c-4.7-0.5-5.9-4.9-6.2-7.5c-0.1-1.1-0.6-2-1.3-2.8
		c-2.3-2.5-5-5.8-6.4-7.6c-1.1-1.5-1.7-3.3-1.8-5.1c0-4.3,1.1-9.4,2-12.9c1-3.6,0.3-7.5-1.9-10.5c-0.9-1.2-1.6-2.1-1.6-2.1
		C27.8,4.3,27.8,4,28,3.8c0.2-0.2,0.6-0.2,0.7,0.1c0,0,0.8,0.9,1.7,2.2c2.3,3.3,3.1,7.5,2,11.4c-0.9,3.4-2,8.4-2,12.6
		c0,1.6,0.6,3.2,1.5,4.4c1.4,1.8,4,5.1,6.3,7.6c0.9,0.9,1.4,2.1,1.6,3.4c0.3,2.2,1.3,6.1,5.2,6.5c0.4,0,8.5,1.1,11.7-5.7l0,0
		c0,0,1.7-6.6,3.4-10.6c0.8-2,2.5-3.4,4.6-3.8c2.2-0.4,5.6-0.9,9.4-0.9c0.8,0,1.6-0.2,2.2-0.7c0.6-0.5,0.8-1.1,0.6-1.7
		c-0.2-0.5-0.6-1-1.2-1.2c-0.6-0.2-1.4-0.6-2.2-1c-1.3-0.7-2.1-2.1-2.2-3.6c0-1.5,0.7-2.8,2-3.6c1.2-0.7,2.6-1.2,4.2-1.3
		c0.3,0,0.6,0.2,0.6,0.5c0,0.3-0.2,0.6-0.5,0.6c-1.4,0.2-2.7,0.6-3.8,1.2c-0.9,0.6-1.5,1.5-1.5,2.6c0,1.1,0.6,2.1,1.6,2.7
		c0.8,0.4,1.6,0.8,2.1,1c0.9,0.3,1.6,1,1.8,1.9c0.3,1.1,0,2.1-1,2.9c-0.8,0.6-1.8,1-2.9,1c-3.7-0.1-7,0.4-9.1,0.8
		c-1.7,0.3-3.1,1.5-3.8,3.1c-1.6,3.9-3.3,10.4-3.3,10.5C55.2,52.5,49.2,53.2,46.5,53.2z"/>
	<path fill="#67BEBD" d="M47.8,45.5C47.7,45.5,47.7,45.5,47.8,45.5c-1.9-0.1-2.3-1.5-2.3-1.5c0-0.1,0-0.2,0-0.2c0-0.1,0-0.1,0-0.2
		c0-0.1,0-0.3-0.1-0.5c-0.1-0.3,0.1-0.6,0.4-0.7c0.3-0.1,0.6,0.1,0.7,0.4c0.1,0.3,0.1,0.5,0.1,0.8c0,0.1,0,0.1,0,0.2
		c0.1,0.2,0.4,0.6,1.3,0.7c0.3,0,0.5,0.3,0.5,0.6C48.3,45.2,48,45.5,47.8,45.5z M50.8,44.8c-0.2,0-0.4-0.1-0.5-0.3
		c-0.1-0.3,0-0.6,0.3-0.7c0.2-0.1,0.3-0.1,0.5-0.2c0.8-0.4,1.5-0.8,2.2-1.3c0.2-0.2,0.6-0.1,0.7,0.1c0.2,0.2,0.1,0.6-0.1,0.7
		c-0.7,0.5-1.5,1-2.4,1.4c-0.2,0.1-0.3,0.2-0.5,0.2C51,44.8,50.9,44.8,50.8,44.8z M56,41.1c-0.1,0-0.3,0-0.4-0.1
		c-0.2-0.2-0.2-0.5,0-0.8c0.5-0.6,1-1.2,1.4-1.9c0.1-0.2,0.3-0.4,0.4-0.6c0.1-0.3,0.5-0.4,0.7-0.2c0.3,0.1,0.4,0.5,0.2,0.7
		c-0.1,0.2-0.3,0.5-0.4,0.7c-0.4,0.7-0.9,1.4-1.5,2C56.3,41.1,56.2,41.1,56,41.1z M44.2,40.7c-0.2,0-0.3-0.1-0.4-0.2
		c-0.6-0.7-1.3-1.4-2.2-2.2c-0.2-0.2-0.2-0.5,0-0.8c0.2-0.2,0.5-0.2,0.8,0c0.9,0.8,1.7,1.6,2.3,2.3c0.2,0.2,0.2,0.6-0.1,0.7
		C44.5,40.7,44.3,40.7,44.2,40.7z M39.6,36.3c-0.1,0-0.2,0-0.3-0.1c-0.9-0.7-1.8-1.4-2.5-1.9c-0.2-0.2-0.3-0.5-0.1-0.7
		c0.2-0.2,0.5-0.3,0.7-0.1c0.8,0.6,1.6,1.2,2.5,2c0.2,0.2,0.3,0.5,0.1,0.7C39.9,36.3,39.7,36.3,39.6,36.3z M58.8,35.5
		c-0.1,0-0.1,0-0.2,0c-0.3-0.1-0.4-0.4-0.3-0.7c0.4-1.1,0.8-2.1,1.4-3c0.2-0.2,0.5-0.3,0.7-0.2c0.2,0.2,0.3,0.5,0.2,0.7
		c-0.5,0.8-1,1.8-1.3,2.8C59.2,35.4,59,35.5,58.8,35.5z M34.5,32.4c-0.1,0-0.3-0.1-0.4-0.2c-0.8-0.8-1.4-1.9-1.7-3
		c-0.1-0.3,0.1-0.6,0.4-0.7c0.3-0.1,0.6,0.1,0.7,0.4c0.3,0.9,0.8,1.8,1.5,2.5c0.2,0.2,0.2,0.5,0,0.8C34.8,32.4,34.6,32.4,34.5,32.4z
		 M62.2,30.2c-0.1,0-0.3-0.1-0.4-0.2c-0.2-0.2-0.2-0.6,0-0.8c0.3-0.2,0.6-0.5,0.9-0.7c0.3-0.2,0.6-0.4,0.9-0.6
		c0.3-0.2,0.5-0.3,0.8-0.5c0.2-0.2,0.6-0.2,0.7,0.1c0.2,0.2,0.2,0.6-0.1,0.7c-0.3,0.2-0.6,0.5-0.9,0.7c-0.3,0.2-0.6,0.4-0.8,0.5
		c-0.3,0.2-0.6,0.4-0.8,0.6C62.5,30.1,62.3,30.2,62.2,30.2z M32.7,26.5C32.7,26.5,32.7,26.5,32.7,26.5c-0.3,0-0.6-0.3-0.5-0.6
		c0.1-1,0.3-2.1,0.7-3.2c0.1-0.3,0.4-0.4,0.7-0.3c0.3,0.1,0.4,0.4,0.3,0.7c-0.3,1.1-0.6,2.1-0.7,3C33.2,26.3,33,26.5,32.7,26.5z
		 M66.5,25.7c-0.1,0-0.1,0-0.2,0c-0.3-0.1-0.4-0.4-0.3-0.7c0.3-0.8,0.4-1.8,0.4-2.9c0-0.3,0.2-0.6,0.5-0.6s0.5,0.2,0.5,0.5
		c0,1.3-0.2,2.4-0.5,3.3C67,25.6,66.8,25.7,66.5,25.7z M34.6,20.5c-0.1,0-0.2,0-0.2-0.1c-0.3-0.1-0.4-0.5-0.2-0.7
		c0.1-0.2,0.2-0.4,0.3-0.6c0.4-0.7,0.9-1.4,1.6-2.1c0.2-0.2,0.5-0.2,0.8,0s0.2,0.5,0,0.8c-0.6,0.6-1.1,1.2-1.4,1.9
		c-0.1,0.2-0.2,0.4-0.3,0.6C35,20.4,34.8,20.5,34.6,20.5z M66.6,19.4c-0.2,0-0.5-0.2-0.5-0.4l0-0.1c0,0,0,0,0,0c0,0-0.3-1-1.9-1.4
		c-0.3-0.1-0.5-0.4-0.4-0.7c0.1-0.3,0.4-0.4,0.7-0.4c2.2,0.6,2.6,2.1,2.6,2.2l0,0c0,0.1,0,0.1,0,0.2c0.1,0.3-0.1,0.6-0.4,0.6
		C66.7,19.4,66.7,19.4,66.6,19.4z M61.2,16.7c-0.1,0-0.1,0-0.2,0c-0.6-0.3-1.1-0.6-1.6-1c-0.4-0.4-0.8-0.7-1.1-1.1
		c-0.2-0.2-0.2-0.6,0.1-0.7c0.2-0.2,0.6-0.2,0.7,0.1c0.3,0.3,0.6,0.6,1,1c0.4,0.3,0.9,0.6,1.3,0.8c0.3,0.1,0.4,0.4,0.3,0.7
		C61.6,16.6,61.4,16.7,61.2,16.7z M38.1,15.2c0,0-0.1,0-0.1,0c-0.3-0.1-0.5-0.3-0.4-0.6c0.1-0.3,0.1-0.6,0.1-0.9
		c0-0.6-0.1-1.3-0.4-1.9c-0.1-0.3,0.1-0.6,0.3-0.7c0.3-0.1,0.6,0.1,0.7,0.3c0.3,0.8,0.4,1.6,0.4,2.3c0,0.4,0,0.8-0.1,1.1
		C38.6,15.1,38.4,15.2,38.1,15.2z M57.7,11.8C57.7,11.8,57.6,11.8,57.7,11.8c-0.3,0-0.6-0.3-0.5-0.6c0.1-1,0.6-2.1,1.5-3.1
		c0.2-0.2,0.5-0.2,0.8,0c0.2,0.2,0.2,0.5,0,0.8c-0.8,0.8-1.2,1.7-1.3,2.5C58.2,11.6,57.9,11.8,57.7,11.8z M36.4,9.2
		c-0.2,0-0.3-0.1-0.4-0.2c-0.9-1.4-1.9-2.4-1.9-2.4c-0.2-0.2-0.2-0.5,0-0.8c0.2-0.2,0.5-0.2,0.8,0c0,0,1.1,1.1,2,2.6
		C37,8.7,37,9,36.7,9.2C36.6,9.2,36.5,9.2,36.4,9.2z"/>
	<path fill="#0A2120" d="M50.2,39.2c-1.9,0-3.6-0.9-4.8-2.4c-2.9-1.5-5.4-3.5-7.4-5.9c-2.4-2.8-2.6-6.9-0.5-10
		c1.7-2.5,3.6-4.1,3.6-4.2c0,0,0,0,0.1-0.1c3.5-2.1,5.7-2.7,6.9-1.9c0.8,0.5,1,1.6,0.7,3c-0.2,0.8,0,1.5,0.5,2.1
		c0,0,0.1,0.1,0.1,0.1c1.2,1.5,3.3,2.1,5.3,1.6c3.4-0.8,5.8-0.8,7,0.1c0.5,0.4,0.7,0.9,0.7,1.1c1.3,2.4-3.5,7.1-4.5,8
		c-0.4,0.5-1.2,2.1-2,4.3c-0.8,2.1-2.6,3.6-4.8,3.9C50.8,39.2,50.5,39.2,50.2,39.2z M41.8,17.6c-0.3,0.2-1.9,1.7-3.4,4
		c-1.8,2.7-1.7,6.2,0.4,8.7c2,2.3,4.4,4.2,7.2,5.6c0.1,0,0.2,0.1,0.3,0.2c1.1,1.5,2.9,2.2,4.7,2c1.9-0.3,3.3-1.5,4-3.2
		c0.9-2.4,1.6-4,2.2-4.7c2.3-2.1,5.1-5.6,4.3-6.8c0-0.1-0.1-0.2-0.1-0.3c0,0,0,0,0,0c0,0,0-0.2-0.4-0.5c-0.5-0.4-2.1-0.9-6,0.1
		c-2.4,0.6-4.8-0.2-6.3-2l-0.1-0.1c-0.7-0.8-0.9-1.9-0.7-3c0.1-0.4,0.2-1.5-0.3-1.9C47.2,15.5,45.9,15.2,41.8,17.6z M45.4,36.8
		C45.4,36.8,45.5,36.9,45.4,36.8C45.5,36.9,45.4,36.8,45.4,36.8z M45.4,36.8C45.4,36.8,45.4,36.8,45.4,36.8
		C45.4,36.8,45.4,36.8,45.4,36.8z"/>
	<path fill="#0A2120" d="M49.5,35c-0.8,0-1.5-0.2-2.1-0.7l-6.2-4.6c-1.4-1-1.8-2.9-1-4.4l0.6-1.2c0.6-1.2,2.3-2.2,3.6-2.2
		c0.8,0,1.4,0.4,1.7,1.1c1.3,2.9,3.1,4.2,4.5,5.1c0.6,0.4,1.2,0.8,1.6,1.2c1,1,0.9,2.6,0.3,3.8c-0.5,0.9-1.3,1.6-2.3,1.8
		C50,35,49.8,35,49.5,35z M44.3,23c-0.9,0-2.1,0.7-2.5,1.6l0,0l-0.6,1.2c-0.5,1.1-0.3,2.4,0.7,3.1l6.2,4.6c0.6,0.4,1.3,0.6,2,0.4
		c0.7-0.2,1.3-0.6,1.6-1.2c0.4-0.7,0.5-1.8-0.1-2.5c-0.4-0.4-0.8-0.7-1.4-1.1c-1.5-1-3.5-2.4-4.9-5.6C45.1,23.4,45,23,44.3,23
		C44.4,23,44.4,23,44.3,23z M41.3,24.3L41.3,24.3L41.3,24.3z"/>
	<path fill="#67BEBD" d="M79.7,65.2h-0.2c-1.2,0-2.3-0.4-3.1-1.2c-0.2-0.2-0.2-0.5,0-0.8c0.2-0.2,0.5-0.2,0.8,0
		c0.6,0.6,1.5,0.9,2.3,0.9h0.2c0.3,0,0.5,0.2,0.5,0.5C80.2,64.9,80,65.2,79.7,65.2z M74.4,62c-0.1,0-0.2,0-0.3-0.1
		c-1.1-0.7-2.1-1.1-2.7-1.3c-0.3-0.1-0.4-0.4-0.3-0.7c0.1-0.3,0.4-0.4,0.7-0.3c0.7,0.2,1.8,0.7,3,1.4c0.2,0.2,0.3,0.5,0.1,0.7
		C74.8,61.9,74.6,62,74.4,62z M68.4,60.3C68.4,60.3,68.3,60.3,68.4,60.3c-1.1-0.1-2.1-0.4-3-0.8c-0.1,0-0.2-0.1-0.3-0.1
		c-0.3-0.1-0.4-0.4-0.2-0.7c0.1-0.3,0.5-0.4,0.7-0.2c0.1,0,0.2,0.1,0.2,0.1c0.8,0.3,1.7,0.6,2.7,0.7c0.3,0,0.5,0.3,0.5,0.6
		C68.9,60.1,68.7,60.3,68.4,60.3z M63,57.3c-0.2,0-0.4-0.1-0.5-0.3c-0.5-0.9-0.8-1.8-0.8-2.8c0-0.1,0-0.3,0-0.5
		c0-0.3,0.2-0.5,0.5-0.6c0.3,0,0.5,0.2,0.6,0.5c0,0.2,0,0.3,0,0.5c0,0.8,0.3,1.6,0.7,2.3c0.1,0.3,0.1,0.6-0.2,0.7
		C63.2,57.2,63.1,57.3,63,57.3z M61.8,51c-0.2,0-0.5-0.2-0.5-0.4c-0.3-1.3-0.6-2.5-0.7-3.1c-0.1-0.3,0.1-0.6,0.4-0.7
		c0.3-0.1,0.6,0.1,0.7,0.4c0.2,0.6,0.5,1.8,0.7,3.2c0.1,0.3-0.1,0.6-0.4,0.6C61.9,51,61.9,51,61.8,51z M61,44.7
		C61,44.7,61,44.7,61,44.7c-0.3,0-0.6-0.3-0.5-0.6c0.1-1.2,0.3-2.3,0.7-3.3c0.1-0.3,0.4-0.4,0.7-0.3c0.3,0.1,0.4,0.4,0.3,0.7
		c-0.3,0.9-0.5,1.9-0.6,3C61.5,44.5,61.3,44.7,61,44.7z M63.2,38.9c-0.1,0-0.2,0-0.3-0.1c-0.2-0.2-0.3-0.5-0.1-0.7
		c0.2-0.2,0.3-0.4,0.5-0.5c0.5-0.5,1.1-0.8,1.8-0.9l0.7-0.1c0.3-0.1,0.6,0.1,0.6,0.4c0.1,0.3-0.1,0.6-0.4,0.6l-0.7,0.1
		c-0.5,0.1-0.9,0.3-1.3,0.7c-0.1,0.1-0.3,0.3-0.4,0.4C63.5,38.8,63.3,38.9,63.2,38.9z M69.1,36.9c-0.3,0-0.5-0.2-0.5-0.4
		c-0.1-0.3,0.1-0.6,0.4-0.6l3.1-0.6c0.3,0,0.6,0.1,0.6,0.4c0.1,0.3-0.1,0.6-0.4,0.6L69.1,36.9C69.1,36.9,69.1,36.9,69.1,36.9z
		 M75.4,35.9c-0.2,0-0.5-0.2-0.5-0.4c-0.1-0.3,0.1-0.6,0.4-0.6c0.9-0.2,1.9-0.6,2.9-1.1c0.3-0.1,0.6,0,0.7,0.2s0,0.6-0.2,0.7
		c-1.1,0.5-2.1,0.9-3.1,1.2C75.5,35.9,75.4,35.9,75.4,35.9z M81.1,33.1c-0.2,0-0.3-0.1-0.4-0.2c-0.2-0.2-0.1-0.6,0.1-0.7
		c1.4-1,2.4-2,2.4-2c0.2-0.2,0.5-0.2,0.8,0c0.2,0.2,0.2,0.5,0,0.8c0,0-1,1-2.5,2.1C81.3,33.1,81.2,33.1,81.1,33.1z"/>
	<path fill="#0A2120" d="M79.9,48.1c-0.8,0-1.5-0.4-2-1.1l-2.5-4c-0.3-0.5-0.4-1.1-0.2-1.6c0.2-0.6,0.5-1,1.1-1.3l4.1-3
		c0.5-0.4,1.2-0.5,1.8-0.3c0.6,0.2,1.1,0.7,1.3,1.3l0,0l0.7,2c0.2,0.7,0.2,1.5-0.1,2.2l-1.9,4.5c-0.3,0.8-1.1,1.3-1.9,1.4
		C80.1,48.1,80,48.1,79.9,48.1z M81.6,37.7c-0.2,0-0.4,0.1-0.5,0.2L76.8,41c-0.3,0.2-0.5,0.4-0.6,0.7c-0.1,0.3,0,0.6,0.1,0.8l2.5,4
		c0.3,0.4,0.7,0.6,1.2,0.6c0.5,0,0.9-0.3,1.1-0.8l1.9-4.5c0.2-0.5,0.2-1,0.1-1.5l-0.7-2c-0.1-0.3-0.3-0.5-0.6-0.6
		C81.7,37.7,81.6,37.7,81.6,37.7z"/>
	<path fill="#0A2120" d="M17.9,78.1c-0.1,0-0.2,0-0.2-0.1c-0.3-0.1-0.4-0.5-0.2-0.7c0.2-0.4,5.6-10.6,15.1-12.7c0,0,2.9-0.8,4.9-4.2
		c0.4-0.7,1-1.2,1.7-1.5c3.1-1.3,10.7-4,14-2.8c0.3,0.1,6.3,2.3,8.6,4.5c0.6,0.6,1.4,0.9,2.2,1l3.6,0.2c2,0.1,3.9,1.1,5.2,2.6
		l4.3,5.2c0.2,0.2,0.2,0.6-0.1,0.7c-0.2,0.2-0.6,0.2-0.7-0.1l-4.3-5.2c-1.1-1.3-2.7-2.1-4.4-2.2l-3.6-0.2c-1.1-0.1-2.1-0.5-2.9-1.3
		c-2.1-2-8.2-4.2-8.2-4.2C49.7,56,41.9,59,39.5,59.9c-0.5,0.2-0.9,0.6-1.2,1.1c-2.2,3.8-5.4,4.6-5.5,4.7c-9.1,2-14.4,12-14.4,12.1
		C18.3,78,18.1,78.1,17.9,78.1z"/>
	<path fill="#67BEBD" d="M36.5,84.1c-0.2,0-0.4-0.1-0.5-0.3l-1.1-3c-0.1-0.3,0-0.6,0.3-0.7c0.3-0.1,0.6,0,0.7,0.3l1.1,3
		c0.1,0.3,0,0.6-0.3,0.7C36.6,84.1,36.6,84.1,36.5,84.1z M22.4,81.1c-0.1,0-0.2,0-0.3-0.1c-0.2-0.2-0.3-0.5-0.1-0.7l1.9-2.6
		c0.2-0.2,0.5-0.3,0.7-0.1c0.2,0.2,0.3,0.5,0.1,0.7l-1.9,2.6C22.7,81.1,22.5,81.1,22.4,81.1z M34.2,78.1c-0.2,0-0.4-0.1-0.5-0.3
		c-0.5-0.9-1.2-1.6-2-2.1c-0.2-0.2-0.3-0.5-0.2-0.7c0.2-0.2,0.5-0.3,0.7-0.2c1,0.6,1.8,1.5,2.3,2.5c0.1,0.3,0.1,0.6-0.2,0.7
		C34.4,78.1,34.3,78.1,34.2,78.1z M26.2,76c-0.1,0-0.3,0-0.4-0.1c-0.2-0.2-0.2-0.5,0-0.8c0.8-0.8,1.9-1.3,3.2-1.3l0.1,0.5l0,0.5
		c0,0,0,0,0,0c-1,0-1.9,0.3-2.5,1C26.5,76,26.3,76,26.2,76z"/>
	<path fill="#0A2120" d="M54.5,85.7c-0.2,0-0.3-0.1-0.4-0.2L53,84.1c-1.4-1.8-3.4-3-5.7-3.3c-5.2-0.6-9.2-4.1-9.3-4.3
		c0,0-0.1-0.1-0.1-0.1c-1.7-2.8-1.9-5.9-0.5-9.1c1.9-4.4,6.1-7.4,11-7.9c3.9-0.3,7.4,0.7,10.3,3.1l0,0c0,0,2.8,1.8,8.6,2.2
		c1.9,0.1,3.5,1,4.6,2.5c1.4,1.9,2.2,4,2.2,6.2c0,0.3-0.2,0.5-0.5,0.5c0,0,0,0,0,0c-0.3,0-0.5-0.2-0.5-0.5c0-2.4-1.1-4.3-2-5.5
		c-0.9-1.2-2.3-1.9-3.8-2.1c-6.2-0.5-9.1-2.4-9.2-2.4c-2.8-2.3-6-3.2-9.6-2.9c-4.5,0.4-8.4,3.1-10.1,7.2c-1.2,2.8-1.1,5.5,0.4,8
		c0.5,0.4,4.2,3.5,8.7,4c2.5,0.3,4.9,1.6,6.4,3.7l1.1,1.4c0.2,0.2,0.1,0.6-0.1,0.7C54.7,85.7,54.6,85.7,54.5,85.7z"/>
	<path fill="#67BEBD" d="M50.8,71.3C50.7,71.3,50.7,71.3,50.8,71.3c-1-0.2-1.9-0.5-2.7-1.1l-0.4-0.3c-0.2-0.2-0.3-0.5-0.1-0.7
		c0.2-0.2,0.5-0.3,0.7-0.1l0.4,0.3c0.6,0.5,1.4,0.8,2.2,0.9c0.3,0,0.5,0.3,0.4,0.6C51.2,71.1,51,71.3,50.8,71.3z M53.9,70.8
		c-0.2,0-0.4-0.1-0.5-0.3c-0.1-0.3,0-0.6,0.3-0.7c0.5-0.2,1-0.6,1.4-1c0.2-0.2,0.4-0.5,0.4-0.8c0.1-0.3,0.4-0.5,0.6-0.4
		c0.3,0.1,0.5,0.3,0.4,0.6c-0.1,0.5-0.3,1-0.7,1.3c-0.5,0.5-1.1,0.9-1.7,1.2C54,70.8,54,70.8,53.9,70.8z M45.5,67.9
		c-0.2,0-0.4-0.1-0.5-0.3c-0.2-0.4-0.4-0.8-0.4-1.3c0-0.9,0.5-1.8,1.3-2.2c0,0,0,0,0.1,0c0,0,0,0,0.1,0l2.4-1.2
		c0.2-0.1,0.3-0.1,0.5-0.2c0.3-0.1,0.6,0,0.7,0.3c0.1,0.3,0,0.6-0.3,0.7c-0.1,0-0.2,0.1-0.4,0.2L46.6,65c0,0,0,0,0,0c0,0,0,0,0,0
		c-0.5,0.3-0.7,0.8-0.7,1.3c0,0.3,0.1,0.5,0.2,0.8c0.1,0.3,0.1,0.6-0.2,0.7C45.7,67.9,45.6,67.9,45.5,67.9z M54.7,66
		c-0.1,0-0.3,0-0.4-0.1l-1.8-1.6c-0.2-0.2-0.4-0.3-0.6-0.4c-0.3-0.1-0.3-0.5-0.2-0.7c0.1-0.3,0.5-0.3,0.7-0.2
		c0.3,0.2,0.5,0.3,0.7,0.5l1.8,1.6c0.2,0.2,0.2,0.5,0,0.8C54.9,65.9,54.8,66,54.7,66z"/>
	<path fill="#0A2120" d="M62.9,77.9c-0.1,0-0.2,0-0.3-0.1c-0.2-0.2-0.5-0.3-0.7-0.5c-0.9-0.6-1.8-1.2-2.2-2.2l-0.9-2.3
		c-0.7-1.7,0.1-3.6,1.8-4.3l3.2-1.3c0.9-0.4,1.9-0.3,2.8,0.1c0.9,0.4,1.6,1.2,1.9,2.1l0.7,2.2c0.5,1.5-0.2,3.2-2,5.1
		c-0.1,0.1-0.1,0.1-0.2,0.1l-4,1.1C63,77.9,62.9,77.9,62.9,77.9z M65.2,68c-0.3,0-0.6,0.1-0.9,0.2L61,69.5c-1.1,0.5-1.7,1.8-1.2,2.9
		h0l0.9,2.3c0.3,0.7,1,1.2,1.8,1.7c0.2,0.1,0.3,0.2,0.5,0.4l3.6-1c1.5-1.5,2-2.8,1.6-3.9l-0.7-2.2c-0.2-0.7-0.7-1.2-1.3-1.5
		C65.9,68.1,65.5,68,65.2,68z"/>
	<path fill="#0A2120" d="M51.6,15.2c-0.2,0-0.4,0-0.6-0.1c-0.2-0.1-0.3-0.2-0.4-0.4c-0.1-0.2,0-0.4,0.1-0.5c0-0.1-0.3-0.4-0.4-0.5
		c-0.2-0.2-0.4-0.3-0.6-0.5c-0.1-0.1-0.1-0.3-0.1-0.4l0.2-0.9c0.2-0.8,0.9-1.4,1.7-1.5c0.7-0.9,1.2-0.9,1.6-0.7
		c1.1,0.4,0.7,2.5,0.6,3.2l-0.3,1c-0.1,0.5-0.5,0.9-0.9,1.2C52.2,15.1,51.9,15.2,51.6,15.2z M50.7,12.8c0.1,0.1,0.2,0.1,0.2,0.2
		c0.4,0.3,0.8,0.6,0.9,1.1c0,0,0.1,0,0.1-0.1c0.2-0.1,0.4-0.3,0.4-0.5l0.3-0.9c0.2-1,0.1-1.7,0-1.9c-0.1,0.1-0.2,0.2-0.4,0.5
		c-0.1,0.1-0.3,0.3-0.5,0.3c-0.4,0-0.8,0.3-0.9,0.7L50.7,12.8z"/>
	<path fill="#0A2120" d="M9.2,69.1c-0.1,0-0.2,0-0.3-0.1c-0.2-0.2-0.3-0.5-0.1-0.7c1.2-1.8,3.2-3.5,4.6-4.6c1.3-1,2.6-2.1,3.7-3.4
		l1.1-1.2c1-1.1,1.9-2.4,2.5-3.8l0.3-0.6c1.3-2.8,0.8-6.2-1.3-8.5l-2-2.2c-1.6-1.7-2.8-3.6-3.8-5.7l-0.4-1c-0.5-1.3-6.4-5.3-10-7.5
		c-0.3-0.2-0.3-0.5-0.2-0.7C3.4,28.9,3.7,28.8,4,29c1.6,1,9.6,6,10.4,8l0.4,0.9c0.9,2,2.1,3.8,3.6,5.4l2,2.2c2.4,2.6,3,6.4,1.5,9.6
		l-0.3,0.6c-0.7,1.5-1.6,2.8-2.7,4.1L17.9,61c-1.2,1.3-2.5,2.5-3.9,3.5c-1.4,1-3.2,2.6-4.4,4.3C9.6,69,9.4,69.1,9.2,69.1z"/>
	<path fill="#0A2120" d="M11,71.3c-0.2,0-0.4-0.1-0.5-0.3c-0.2-0.3-0.1-0.6,0.2-0.7l1.2-0.7c2-1.2,3.5-2.9,4.4-5
		c0.8-1.7,1.9-3.2,3.3-4.3c0.9-0.7,1.7-1.6,2.4-2.7l2.9-4.6c1.7-2.8,1.9-6.4,0.3-9.3L25,43.3c-0.9-1.6-2.2-2.9-3.8-3.8l-0.7-0.4
		c-1.4-0.8-2.6-1.8-3.6-3.1l-2.4-3.2c-1.2-1.6-2.9-2.9-4.8-3.6l-5.2-2c-0.3-0.1-0.4-0.4-0.3-0.7c0.1-0.3,0.4-0.4,0.7-0.3l5.2,2
		c2.1,0.8,3.9,2.1,5.2,3.9l2.4,3.2c0.9,1.1,2,2.1,3.3,2.8l0.7,0.4c1.8,1,3.2,2.4,4.2,4.2l0.2,0.5c1.7,3.3,1.6,7.2-0.4,10.3l-2.9,4.6
		c-0.7,1.1-1.6,2.1-2.6,2.9c-1.3,1-2.4,2.4-3,3.9c-1,2.3-2.7,4.2-4.8,5.5l-1.2,0.7C11.2,71.3,11.1,71.3,11,71.3z"/>
	<path fill="#0A2120" d="M13,73.6c-0.2,0-0.4-0.1-0.5-0.3c-0.1-0.3,0-0.6,0.3-0.7c3.6-1.7,8.1-8.3,9.4-10.3c0.4-0.6,0.9-1.3,1.4-1.9
		c1.7-1.9,3.6-4.4,5.5-7.3c1.8-2.8,1.7-6.4-0.3-9l-2.1-2.8c-1.2-1.5-2.6-3-4.2-4.2c-6.3-5-4.6-9.1-4.5-9.2c1.2-3.2,0.8-4.2,0.5-4.5
		c-0.3-0.3-0.8-0.3-1.2-0.2c-0.3,0.1-0.6,0.2-0.9,0.4c-5.6,3.9-10.5,1.3-10.7,1.2c-0.3-0.1-0.4-0.5-0.2-0.7c0.1-0.3,0.5-0.4,0.7-0.2
		c0.2,0.1,4.6,2.4,9.6-1.1c0.4-0.3,0.8-0.5,1.2-0.6c1-0.2,1.8-0.1,2.3,0.5c0.8,0.9,0.7,2.7-0.4,5.6c-0.1,0.2-1.5,3.5,4.2,8
		c1.7,1.3,3.1,2.8,4.4,4.4l2.1,2.8c2.3,3,2.4,7.1,0.3,10.2c-1.9,2.9-3.8,5.4-5.6,7.4c-0.5,0.6-1,1.2-1.3,1.8
		c-1.7,2.6-6.1,9-9.9,10.7C13.1,73.6,13.1,73.6,13,73.6z"/>
	<path fill="#67BEBD" d="M14.9,75.5c-0.2,0-0.4-0.1-0.5-0.3c-0.1-0.3-0.1-0.6,0.2-0.7c0.4-0.3,0.9-0.6,1.4-1
		c0.2-0.2,0.6-0.1,0.7,0.1c0.2,0.2,0.1,0.6-0.1,0.7c-0.6,0.4-1.1,0.8-1.6,1.1C15.1,75.4,15,75.5,14.9,75.5z M18.8,72.3
		c-0.1,0-0.3-0.1-0.4-0.2c-0.2-0.2-0.2-0.5,0-0.8c0.7-0.7,1.4-1.5,2.1-2.3c0.2-0.2,0.5-0.2,0.8-0.1c0.2,0.2,0.2,0.5,0.1,0.8
		c-0.8,0.9-1.5,1.7-2.2,2.4C19.1,72.3,18.9,72.3,18.8,72.3z M23,67.5c-0.1,0-0.2,0-0.3-0.1c-0.2-0.2-0.3-0.5-0.1-0.7
		c0.7-0.9,1.4-1.8,1.9-2.5c0.2-0.2,0.5-0.3,0.7-0.1c0.2,0.2,0.3,0.5,0.1,0.7c-0.6,0.8-1.2,1.6-2,2.6C23.3,67.5,23.2,67.5,23,67.5z
		 M26.7,62.3c-0.1,0-0.2,0-0.2-0.1c-0.3-0.1-0.4-0.5-0.2-0.7c0.2-0.3,0.3-0.6,0.4-1c0.2-0.5,0.6-1.2,1.1-1.9
		c0.2-0.2,0.5-0.3,0.7-0.1c0.2,0.2,0.3,0.5,0.1,0.7c-0.5,0.7-0.8,1.3-1,1.7c-0.1,0.3-0.3,0.7-0.5,1C27.1,62.2,26.9,62.3,26.7,62.3z
		 M30.2,57c-0.1,0-0.2,0-0.3-0.1c-0.2-0.2-0.3-0.5-0.1-0.7c0.8-1,1.6-1.9,2.2-2.4c0.2-0.2,0.5-0.2,0.8,0c0.2,0.2,0.2,0.5,0,0.8
		c-0.4,0.4-1.2,1.3-2.1,2.4C30.5,56.9,30.3,57,30.2,57z M34.1,52c-0.1,0-0.1,0-0.2,0c-0.3-0.1-0.4-0.4-0.3-0.7
		c0.3-0.7,0.4-1.5,0.4-2.3c0-0.2,0-0.4,0-0.5c0-0.3,0.2-0.5,0.5-0.6c0.3,0,0.6,0.2,0.6,0.5c0,0.2,0,0.4,0,0.6c0,0.9-0.2,1.9-0.5,2.7
		C34.5,51.9,34.3,52,34.1,52z M33.6,45.9c-0.2,0-0.4-0.1-0.5-0.3c-0.2-0.3-0.5-0.7-0.7-1l-1-1.1c-0.1-0.1-0.2-0.2-0.3-0.3
		c-0.2-0.2-0.2-0.6,0-0.8c0.2-0.2,0.6-0.2,0.8,0c0.1,0.1,0.2,0.2,0.3,0.3l1,1.1c0.3,0.4,0.6,0.7,0.9,1.1c0.2,0.3,0.1,0.6-0.2,0.7
		C33.8,45.8,33.7,45.9,33.6,45.9z M29.5,40.9c-0.2,0-0.3-0.1-0.4-0.2c-0.5-0.7-0.9-1.4-1.3-2.2c-0.1-0.2-0.2-0.4-0.3-0.6
		c-0.1-0.3,0-0.6,0.3-0.7c0.3-0.1,0.6,0,0.7,0.3c0.1,0.2,0.2,0.4,0.3,0.6c0.4,0.7,0.8,1.4,1.2,2.1c0.2,0.2,0.1,0.6-0.2,0.7
		C29.8,40.9,29.6,40.9,29.5,40.9z M26.9,35.2c-0.2,0-0.4-0.2-0.5-0.4c-0.3-1-0.5-2.1-0.7-3.2c0-0.3,0.2-0.6,0.5-0.6
		c0.3-0.1,0.6,0.2,0.6,0.5c0.1,1,0.4,2,0.6,3c0.1,0.3-0.1,0.6-0.4,0.7C27,35.1,26.9,35.2,26.9,35.2z M26,28.8
		C26,28.8,26,28.8,26,28.8c-0.3,0-0.5-0.2-0.5-0.5c0-0.2,0-0.4,0-0.6l0.1-1.5c0.1-0.4,0.1-0.8,0.1-1.1c0-0.3,0.3-0.5,0.6-0.5
		c0.3,0,0.5,0.3,0.5,0.6c0,0.4-0.1,0.7-0.1,1.1l-0.1,1.4c0,0.2,0,0.4,0,0.6C26.6,28.6,26.3,28.8,26,28.8z M26.3,22.5
		c-0.3,0-0.5-0.2-0.5-0.5c-0.1-1.2-0.4-2.1-0.8-2.8c-0.2-0.2-0.1-0.6,0.1-0.7c0.2-0.2,0.6-0.1,0.7,0.1c0.5,0.8,0.9,1.9,1,3.3
		C26.9,22.2,26.7,22.5,26.3,22.5C26.3,22.5,26.3,22.5,26.3,22.5z M7.4,22.3c-0.2,0-0.4-0.1-0.5-0.3c-0.1-0.3,0-0.6,0.3-0.7
		c0,0,1.1-0.5,3-1.2c0.3-0.1,0.6,0,0.7,0.3c0.1,0.3,0,0.6-0.3,0.7c-1.9,0.7-2.9,1.1-2.9,1.1C7.5,22.3,7.4,22.3,7.4,22.3z M13.4,20.2
		c-0.2,0-0.4-0.1-0.5-0.4c-0.1-0.3,0.1-0.6,0.4-0.7c0.9-0.3,2-0.6,3.1-0.9c0.3-0.1,0.6,0.1,0.6,0.4c0.1,0.3-0.1,0.6-0.4,0.6
		c-1.1,0.3-2.1,0.6-3.1,0.8C13.5,20.2,13.4,20.2,13.4,20.2z M19.6,18.6c-0.2,0-0.5-0.2-0.5-0.4c-0.1-0.3,0.1-0.6,0.4-0.6
		c0.9-0.2,1.8-0.4,2.7-0.5c0,0,0.2,0,0.5-0.1c0.3,0,0.5,0.2,0.6,0.5c0,0.3-0.2,0.5-0.5,0.6c-0.2,0-0.3,0-0.3,0
		c-1,0.2-1.9,0.3-2.7,0.5C19.6,18.6,19.6,18.6,19.6,18.6z"/>
	<path fill="#0A2120" d="M10,18.1c-0.3,0-0.5-0.2-0.5-0.5c0-0.3,0.2-0.6,0.4-0.6c3.3-0.5,12.1-2.5,13.3-5.9c0.4-1.1-0.1-2.2-1.3-3.5
		c-0.2-0.2-0.2-0.5,0-0.8c0.2-0.2,0.5-0.2,0.8,0c1.5,1.6,2,3.1,1.5,4.6C22.6,16.2,10.6,18,10,18.1C10,18.1,10,18.1,10,18.1z"/>
	<path fill="#0A2120" d="M72.4,16.5c-2.3,0-3.8-0.6-4.5-1.7c-1.3-2,0.5-4.9,0.6-5c0.2-0.2,0.5-0.3,0.7-0.2c0.2,0.2,0.3,0.5,0.2,0.7
		c0,0-1.5,2.5-0.6,3.9c0.7,1.1,2.9,1.5,6.2,1c0.3,0,0.6,0.2,0.6,0.5c0,0.3-0.2,0.6-0.5,0.6C74.1,16.5,73.2,16.5,72.4,16.5z"/>
	<path fill="#0A2120" d="M31.6,84.9c-0.3,0-0.5-0.2-0.5-0.5V83c0-0.7-0.3-1.3-0.8-1.8l-0.1-0.1c-0.6-0.6-1-1.3-1.1-2.2
		c-0.1-0.5-0.3-0.9-0.6-1c0,0,0,0,0,0c-0.5,0-2.1,1.9-3.3,4c-0.1,0.3-0.5,0.3-0.7,0.2c-0.3-0.1-0.3-0.5-0.2-0.7
		c1.2-2,3.3-5.1,4.7-4.5c0.6,0.3,1,0.9,1.2,1.8c0.1,0.6,0.4,1.2,0.8,1.5l0.1,0.1c0.7,0.7,1.1,1.6,1.1,2.6v1.4
		C32.1,84.6,31.9,84.9,31.6,84.9z"/>
	<path fill="#0A2120" d="M43.4,86.5c-23.6,0-42.8-19.2-42.8-42.8S19.9,1,43.4,1s42.8,19.2,42.8,42.8S67,86.5,43.4,86.5z M43.4,2.1
		c-23,0-41.7,18.7-41.7,41.7s18.7,41.7,41.7,41.7s41.7-18.7,41.7-41.7S66.4,2.1,43.4,2.1z"/>
</g>
</svg>
